<mxfile host="app.diagrams.net" modified="2024-07-21T03:37:29.599Z" agent="Mozilla/5.0 (Macintosh; Intel Mac OS X 10_15_7) AppleWebKit/605.1.15 (KHTML, like Gecko) Version/17.5 Safari/605.1.15" version="24.7.2" etag="6EPaPV5BRV2ghnGjPMka" type="github">
  <diagram name="Page-1" id="A-dICZdCEQgdkW_ZbV0s">
    <mxGraphModel>
      <root>
        <mxCell id="0" />
        <mxCell id="1" parent="0" />
      </root>
    </mxGraphModel>
  </diagram>
</mxfile>
